<svg xmlns="http://www.w3.org/2000/svg" width="20" height="20" viewBox="0 0 20 20">
    <path fill="#000" fill-rule="nonzero" d="M10 0C4.477 0 0 4.477 0 10c0 5.522 4.477 10 10 10 5.522 0 10-4.478 10-10 0-5.523-4.478-10-10-10zm.69 11.222c0 .027-.004.053-.008.08-.002.02-.004.04-.008.059-.005.02-.012.04-.019.06-.008.024-.015.049-.025.072l-.004.012a.685.685 0 0 1-.052.09l-.004.006a.688.688 0 0 1-.073.088l-.022.022a.662.662 0 0 1-.073.06l-.024.017a.692.692 0 0 1-.104.056l-.023.01a.695.695 0 0 1-.252.048l-.025-.003a.696.696 0 0 1-.118-.013l-.036-.011a.702.702 0 0 1-.104-.035l-.011-.004-3.834-1.809a.692.692 0 0 1 .59-1.251l2.847 1.343v-5.97a.692.692 0 0 1 1.383 0V11.223z"/>
</svg>
