<svg xmlns="http://www.w3.org/2000/svg" width="26" height="20" viewBox="0 0 26 20">
    <g fill="#000" fill-rule="evenodd">
        <path d="M7.888.007c-2.617 0-4.746 2.234-4.746 4.98 0 2.745 2.129 4.979 4.746 4.979 2.617 0 4.745-2.234 4.745-4.98 0-2.745-2.128-4.979-4.745-4.979zM18.677.72h-.032a3.955 3.955 0 0 0-2.888 1.292 4.346 4.346 0 0 0-1.15 3.008 4.348 4.348 0 0 0 1.2 2.988 3.957 3.957 0 0 0 2.876 1.245h.033a3.955 3.955 0 0 0 2.889-1.292 4.346 4.346 0 0 0 1.15-3.008C22.734 2.612 20.908.72 18.676.72zM18.877 10.068h-.394c-1.835 0-3.51.69-4.774 1.822a9.148 9.148 0 0 1 2.868 3.67c.416.974.654 2 .71 3.057H26v-1.501c0-3.886-3.195-7.048-7.123-7.048zM15.76 18.617a7.54 7.54 0 0 0-3.069-5.598 7.668 7.668 0 0 0-4.566-1.495h-.474C3.425 11.524 0 14.913 0 19.094v.899h15.775v-.899c0-.16-.005-.32-.015-.477z"/>
    </g>
</svg>
