<svg xmlns="http://www.w3.org/2000/svg" width="24" height="20" viewBox="0 0 24 20">
    <path fill="#000" fill-rule="nonzero" d="M23.074 11.267h-3.27v-3.2h3.27c.492 0 .89-.405.89-.905s-.398-.905-.89-.905h-3.27v-4.44c0-.648-.127-1.123-.375-1.413C19.193.128 18.883 0 18.454 0c-.41 0-.708.127-.939.401-.245.29-.37.767-.37 1.417v4.44h-6.153l-2.616-4.03c-.224-.36-.435-.696-.64-1.02a4.526 4.526 0 0 0-.532-.705 1.707 1.707 0 0 0-.522-.37A1.7 1.7 0 0 0 5.97 0c-.362 0-.69.101-1.006.309a1.686 1.686 0 0 0-.658.775c-.115.302-.177.763-.177 1.358v3.815H.89a.898.898 0 0 0-.89.905c0 .5.398.906.89.906h3.238v3.2H.89a.898.898 0 0 0-.89.905c0 .5.398.905.89.905h3.238v5.069c0 .628.13 1.1.388 1.398.244.286.554.418.975.418.407 0 .714-.133.97-.419.26-.293.393-.763.393-1.397v-5.069h5.568l3.013 4.702c.21.31.426.625.642.932.195.276.407.52.631.723.202.184.418.319.643.4.232.086.502.129.803.129.814 0 1.649-.254 1.649-2.137v-4.749h3.271c.492 0 .89-.405.89-.906 0-.5-.398-.905-.89-.905zm-5.929-3.2v3.2h-2.899l-2.077-3.2h4.976zM6.855 4.391L8.05 6.257H6.854V4.39zm0 6.876v-3.2H9.21l2.05 3.2H6.854zm10.29 4.465l-1.723-2.654h1.723v2.654z"/>
</svg>
