<svg xmlns="http://www.w3.org/2000/svg" width="20" height="20" viewBox="0 0 20 20">
    <g fill="#000" fill-rule="evenodd">
        <path fill-rule="nonzero" d="M17.726 5.826l.912-1.276-3.188-3.188-1.276.912a8.726 8.726 0 0 0-1.662-.688L12.254 0H7.746l-.258 1.586a8.718 8.718 0 0 0-1.662.688L4.55 1.362 1.362 4.55l.912 1.276a8.716 8.716 0 0 0-.688 1.662L0 7.746v4.508l1.586.258c.172.577.402 1.133.688 1.662l-.912 1.276 3.188 3.188 1.276-.912a8.716 8.716 0 0 0 1.662.688L7.746 20h4.508l.258-1.586a8.718 8.718 0 0 0 1.662-.688l1.276.912 3.188-3.188-.912-1.276a8.716 8.716 0 0 0 .688-1.662L20 12.254V7.746l-1.586-.258a8.724 8.724 0 0 0-.688-1.662zM10 16.446A6.453 6.453 0 0 1 3.555 10 6.453 6.453 0 0 1 10 3.555 6.453 6.453 0 0 1 16.445 10 6.453 6.453 0 0 1 10 16.445z"/>
        <path d="M11.758 6.484a1.758 1.758 0 1 1-3.516 0 1.758 1.758 0 0 1 3.516 0zM5.898 12.344v.93c.246.306.522.582.828.828h2.688V9.414h-.586a2.933 2.933 0 0 0-2.93 2.93zM11.172 9.414h-.586v4.688h2.688c.306-.246.582-.522.828-.828v-.93a2.933 2.933 0 0 0-2.93-2.93z"/>
    </g>
</svg>
